<svg width="331" height="60" viewBox="0 0 331 60" fill="none" xmlns="http://www.w3.org/2000/svg">
<rect width="263" height="60" rx="30" fill="#FC6D6D"/>
<path d="M70.28 40.8C69.3733 40.8 68.52 40.68 67.72 40.44C66.92 40.2 66.2667 39.8267 65.76 39.32C65.2533 38.8133 65 38.1733 65 37.4C65 36.8133 65.1733 36.24 65.52 35.68C65.8933 35.12 66.4133 34.84 67.08 34.84C67.3733 34.84 67.64 34.9067 67.88 35.04C68.12 35.1733 68.28 35.3467 68.36 35.56C68.3333 35.5867 68.2667 35.68 68.16 35.84C68.0533 35.9733 67.9867 36.0667 67.96 36.12C67.72 36.6 67.6 37.04 67.6 37.44C67.6 38 67.8 38.4533 68.2 38.8C68.6267 39.1467 69.1733 39.32 69.84 39.32C70.72 39.2933 71.48 38.9867 72.12 38.4C72.7867 37.7867 73.12 37.0667 73.12 36.24C73.12 35.76 73.0133 35.3067 72.8 34.88C72.4533 34.16 71.9867 33.5467 71.4 33.04C70.84 32.5067 70.2933 31.9733 69.76 31.44C69.2533 30.9067 68.88 30.2667 68.64 29.52C68.5333 29.1733 68.48 28.7467 68.48 28.24C68.48 27.7333 68.5467 27.24 68.68 26.76C68.8133 26.2533 69.0133 25.8267 69.28 25.48C69.6533 24.9733 70.2133 24.5067 70.96 24.08C71.8933 23.5733 72.9867 23.32 74.24 23.32C75.0667 23.32 75.8 23.4267 76.44 23.64C76.92 23.8 77.3333 24.0667 77.68 24.44C78.0533 24.7867 78.24 25.2533 78.24 25.84C78.24 26.5067 78.0267 27.1467 77.6 27.76C77.2 28.3467 76.6133 28.7067 75.84 28.84C75.36 28.8933 74.9333 28.8133 74.56 28.6C74.1867 28.36 74.0533 27.92 74.16 27.28C74.88 27.12 75.4 26.8267 75.72 26.4C75.88 26.16 75.96 25.92 75.96 25.68C75.96 25.2267 75.7733 24.92 75.4 24.76C75.0533 24.5733 74.72 24.48 74.4 24.48C74 24.48 73.6133 24.5333 73.24 24.64C72.8933 24.72 72.5733 24.8667 72.28 25.08C71.6933 25.5867 71.4 26.1733 71.4 26.84C71.4 26.9467 71.4133 27.0667 71.44 27.2C71.4933 27.3333 71.5333 27.4667 71.56 27.6C71.6933 27.9467 71.8933 28.2667 72.16 28.56C72.4267 28.8533 72.6933 29.1067 72.96 29.32C73.6267 29.8 74.3067 30.32 75 30.88C75.72 31.44 76.2533 32.12 76.6 32.92C76.8667 33.48 77 34.0533 77 34.64C77 35.44 76.8 36.1733 76.4 36.84C76 37.48 75.5467 37.9867 75.04 38.36C75.92 37.9867 76.7733 37.3333 77.6 36.4C78.4533 35.44 79.1867 34.4933 79.8 33.56C80.2 32.9467 80.56 32.3733 80.88 31.84C81.2267 31.28 81.5733 30.6667 81.92 30C82.0267 29.8133 82.12 29.72 82.2 29.72C82.36 29.72 82.44 29.9467 82.44 30.4C82.44 30.5867 82.4 30.8133 82.32 31.08C82.2667 31.3467 82.1733 31.6133 82.04 31.88C81.56 32.68 81.1067 33.4267 80.68 34.12C80.2533 34.7867 79.7333 35.52 79.12 36.32C77.8933 37.9467 76.5867 39.1067 75.2 39.8C73.8133 40.4667 72.1733 40.8 70.28 40.8ZM88.0372 40.24C87.3439 40.24 86.7705 39.92 86.3172 39.28C85.8905 38.6133 85.7305 37.5867 85.8372 36.2C85.8905 35.6133 86.0239 34.8667 86.2372 33.96C86.4505 33.0533 86.7305 32.08 87.0772 31.04C87.4505 29.9733 87.8639 28.9467 88.3172 27.96C88.7705 26.9467 89.2639 26.0533 89.7972 25.28C90.0905 24.88 90.3839 24.64 90.6772 24.56C90.9972 24.4533 91.5705 24.4 92.3972 24.4H94.3172C93.8639 25.04 93.3839 25.84 92.8772 26.8C92.3705 27.76 91.9039 28.72 91.4772 29.68C91.0505 30.6133 90.7172 31.4 90.4772 32.04C90.4239 32.2267 90.3172 32.56 90.1572 33.04C89.9972 33.4933 89.8505 34 89.7172 34.56C89.5839 35.12 89.5172 35.64 89.5172 36.12C89.5172 36.5467 89.5972 36.9067 89.7572 37.2C89.9172 37.4933 90.2105 37.64 90.6372 37.64C91.1439 37.6133 91.6905 37.2933 92.2772 36.68C92.8639 36.0667 93.4505 35.28 94.0372 34.32C94.6239 33.36 95.1972 32.36 95.7572 31.32C96.3439 30.2533 96.8639 29.2667 97.3172 28.36C97.7972 27.4267 98.1972 26.7067 98.5172 26.2C98.9172 25.5867 99.3439 25.0533 99.7972 24.6C100.251 24.12 100.771 23.88 101.357 23.88C101.571 23.88 101.851 23.8933 102.197 23.92C102.571 23.92 102.931 23.92 103.277 23.92C103.651 23.92 103.904 23.9067 104.037 23.88C103.877 23.9867 103.691 24.2 103.477 24.52C103.264 24.84 103.051 25.1733 102.837 25.52C102.651 25.84 102.504 26.1067 102.397 26.32C101.704 27.7067 101.024 29.1067 100.357 30.52C99.7172 31.9067 99.2372 33.2267 98.9172 34.48C98.7839 34.96 98.7172 35.3733 98.7172 35.72C98.7172 36.52 98.9839 36.92 99.5172 36.92C99.8905 36.92 100.424 36.6533 101.117 36.12C101.651 35.6933 102.171 35.1467 102.677 34.48C103.237 33.7867 103.757 33.04 104.237 32.24C104.717 31.44 105.131 30.7067 105.477 30.04C105.584 29.8533 105.677 29.76 105.757 29.76C105.917 29.76 105.997 29.9733 105.997 30.4C105.997 30.6133 105.957 30.8667 105.877 31.16C105.824 31.4267 105.717 31.6933 105.557 31.96C105.184 32.6 104.744 33.3067 104.237 34.08C103.731 34.8267 103.211 35.5733 102.677 36.32C102.304 36.8 101.811 37.3467 101.197 37.96C100.584 38.5733 99.9305 39.1067 99.2372 39.56C98.5705 40.0133 97.9172 40.24 97.2772 40.24C96.9039 40.24 96.5572 40.16 96.2372 40C95.9172 39.8667 95.6505 39.5867 95.4372 39.16C95.1705 38.6 95.0372 37.84 95.0372 36.88C95.0372 36.5867 95.0505 36.28 95.0772 35.96C95.1039 35.6133 95.1439 35.2667 95.1972 34.92C94.7972 35.48 94.3705 36 93.9172 36.48C93.4905 36.96 93.0505 37.44 92.5972 37.92C91.5839 38.9333 90.7172 39.5733 89.9972 39.84C89.3039 40.1067 88.6505 40.24 88.0372 40.24ZM112.886 40.4C111.659 40.4 110.739 40.1867 110.126 39.76C109.539 39.3333 109.246 38.52 109.246 37.32C109.246 36.44 109.406 35.3467 109.726 34.04C109.939 33.16 110.246 32.0267 110.646 30.64C111.073 29.2533 111.553 27.7867 112.086 26.24C112.646 24.6667 113.219 23.1467 113.806 21.68C114.393 20.1867 114.966 18.9067 115.526 17.84C116.219 16.5067 116.766 15.5733 117.166 15.04C117.566 14.48 118.006 14.1467 118.486 14.04C118.699 13.9867 118.953 13.9467 119.246 13.92C119.566 13.8933 119.886 13.88 120.206 13.88C120.499 13.88 120.846 13.88 121.246 13.88C121.673 13.88 121.939 13.8667 122.046 13.84C121.539 14.2133 120.913 15.0133 120.166 16.24C119.419 17.44 118.646 18.8933 117.846 20.6C117.046 22.3067 116.286 24.1067 115.566 26C114.846 27.8933 114.259 29.72 113.806 31.48C114.233 30.7333 114.673 30.0133 115.126 29.32C115.579 28.6267 116.019 28.0133 116.446 27.48C117.299 26.44 118.206 25.5733 119.166 24.88C120.126 24.1867 121.059 23.84 121.966 23.84C122.739 23.84 123.379 24.12 123.886 24.68C124.419 25.24 124.686 26.1867 124.686 27.52C124.686 28.9333 124.379 30.36 123.766 31.8C123.153 33.2133 122.366 34.5067 121.406 35.68C121.433 36.1067 121.566 36.4667 121.806 36.76C122.046 37.0267 122.353 37.16 122.726 37.16C123.099 37.16 123.473 37.0267 123.846 36.76C124.246 36.4933 124.619 36.1467 124.966 35.72C125.339 35.2933 125.686 34.88 126.006 34.48C126.539 33.7867 127.046 33.04 127.526 32.24C128.033 31.44 128.459 30.7067 128.806 30.04C128.939 29.8267 129.033 29.72 129.086 29.72C129.246 29.72 129.326 29.9467 129.326 30.4C129.326 30.6133 129.286 30.8533 129.206 31.12C129.153 31.3867 129.059 31.6533 128.926 31.92C128.606 32.4533 128.233 33.08 127.806 33.8C127.379 34.52 126.899 35.2267 126.366 35.92C125.859 36.6133 125.299 37.2133 124.686 37.72C124.099 38.2 123.459 38.5067 122.766 38.64C122.713 38.64 122.646 38.6533 122.566 38.68C122.486 38.68 122.419 38.68 122.366 38.68C121.913 38.68 121.473 38.5467 121.046 38.28C120.619 38.0133 120.313 37.6267 120.126 37.12C119.806 37.44 119.486 37.7333 119.166 38C118.846 38.2667 118.526 38.52 118.206 38.76C117.459 39.2667 116.659 39.6667 115.806 39.96C114.953 40.2533 113.979 40.4 112.886 40.4ZM113.806 38.96C114.259 38.96 114.779 38.7333 115.366 38.28C115.979 37.8 116.566 37.2133 117.126 36.52C117.713 35.8 118.206 35.1067 118.606 34.44C119.219 33.4 119.739 32.32 120.166 31.2C120.593 30.08 120.806 29.1467 120.806 28.4C120.806 27.7333 120.606 27.3467 120.206 27.24C120.153 27.2133 120.086 27.2 120.006 27.2C119.926 27.2 119.859 27.2 119.806 27.2C119.273 27.2 118.673 27.4667 118.006 28C117.526 28.3733 116.979 28.92 116.366 29.64C115.753 30.36 115.153 31.1733 114.566 32.08C114.006 32.96 113.539 33.8533 113.166 34.76C112.819 35.6667 112.646 36.5067 112.646 37.28C112.646 37.3867 112.646 37.5067 112.646 37.64C112.673 37.7733 112.699 37.9067 112.726 38.04C112.859 38.6533 113.219 38.96 113.806 38.96ZM152.78 40.24C151.874 40.24 151.247 39.9733 150.9 39.44C150.58 38.88 150.42 38.24 150.42 37.52C150.42 36.7467 150.54 35.8533 150.78 34.84C151.047 33.8 151.367 32.7333 151.74 31.64C152.14 30.52 152.54 29.48 152.94 28.52C153.074 28.2 153.194 27.8533 153.3 27.48C153.434 27.1067 153.5 26.7733 153.5 26.48C153.5 25.9467 153.26 25.68 152.78 25.68C152.594 25.68 152.38 25.72 152.14 25.8C151.9 25.8533 151.62 25.9733 151.3 26.16C150.74 26.4267 150.207 26.8 149.7 27.28C149.194 27.7333 148.834 28.08 148.62 28.32C147.607 29.6267 146.834 31.04 146.3 32.56C145.794 34.08 145.26 35.6267 144.7 37.2C144.54 37.6533 144.38 38.12 144.22 38.6C144.06 39.08 143.914 39.5467 143.78 40H139.86C140.314 38.72 140.767 37.4533 141.22 36.2C141.7 34.92 142.18 33.6533 142.66 32.4C142.954 31.68 143.22 30.9867 143.46 30.32C143.7 29.6267 143.914 28.9867 144.1 28.4C144.207 28.1067 144.3 27.8 144.38 27.48C144.46 27.16 144.5 26.8667 144.5 26.6C144.5 25.9867 144.234 25.68 143.7 25.68C143.514 25.68 143.287 25.72 143.02 25.8C142.78 25.8533 142.487 25.9733 142.14 26.16C141.58 26.4267 141.047 26.8 140.54 27.28C140.034 27.7333 139.687 28.08 139.5 28.32C139.154 28.7467 138.82 29.2267 138.5 29.76C138.18 30.2667 137.9 30.7867 137.66 31.32C137.127 32.4667 136.7 33.56 136.38 34.6C136.087 35.6133 135.807 36.48 135.54 37.2C135.38 37.6533 135.22 38.12 135.06 38.6C134.9 39.08 134.754 39.5467 134.62 40H130.74C130.74 40 130.834 39.6667 131.02 39C131.207 38.3333 131.434 37.6667 131.7 37L134.3 30.36C134.38 30.1467 134.5 29.8 134.66 29.32C134.847 28.8133 135.034 28.2667 135.22 27.68C135.407 27.0667 135.567 26.48 135.7 25.92C135.834 25.3333 135.9 24.8533 135.9 24.48C135.9 24.24 135.874 24.08 135.82 24C136.06 24 136.327 24 136.62 24C136.94 23.9733 137.234 23.96 137.5 23.96C137.874 23.96 138.22 23.9733 138.54 24C138.887 24.0267 139.114 24.0933 139.22 24.2C139.514 24.4133 139.66 24.7333 139.66 25.16C139.66 25.5067 139.594 25.8533 139.46 26.2C139.327 26.52 139.234 26.7867 139.18 27C139.554 26.6533 139.967 26.32 140.42 26C140.874 25.68 141.527 25.2667 142.38 24.76C142.914 24.4667 143.54 24.2267 144.26 24.04C144.98 23.8533 145.634 23.76 146.22 23.76C147.634 23.76 148.34 24.3467 148.34 25.52C148.34 26 148.194 26.64 147.9 27.44C148.46 26.88 149.034 26.4 149.62 26C150.234 25.5733 150.874 25.16 151.54 24.76C152.074 24.4667 152.7 24.2267 153.42 24.04C154.14 23.8533 154.794 23.76 155.38 23.76C156.794 23.76 157.5 24.36 157.5 25.56C157.5 25.8267 157.447 26.1333 157.34 26.48C157.26 26.8267 157.14 27.2133 156.98 27.64C156.82 28.0667 156.594 28.6533 156.3 29.4C156.007 30.12 155.7 30.8933 155.38 31.72C155.087 32.52 154.834 33.2933 154.62 34.04C154.434 34.76 154.34 35.36 154.34 35.84C154.34 36.1333 154.38 36.4 154.46 36.64C154.567 36.8533 154.754 36.96 155.02 36.96C155.207 36.96 155.474 36.8667 155.82 36.68C156.3 36.3867 156.78 36 157.26 35.52C157.74 35.04 158.06 34.6933 158.22 34.48C158.754 33.7867 159.26 33.0533 159.74 32.28C160.22 31.48 160.634 30.7467 160.98 30.08C161.114 29.8667 161.207 29.76 161.26 29.76C161.42 29.76 161.5 29.9867 161.5 30.44C161.5 30.6533 161.46 30.9067 161.38 31.2C161.327 31.4667 161.234 31.72 161.1 31.96C160.727 32.6 160.287 33.3067 159.78 34.08C159.274 34.8533 158.754 35.6 158.22 36.32C157.847 36.8267 157.354 37.3867 156.74 38C156.127 38.6133 155.474 39.1467 154.78 39.6C154.087 40.0267 153.42 40.24 152.78 40.24ZM173.942 20.8C173.249 20.56 172.902 20.1067 172.902 19.44C172.902 18.8267 173.142 18.2 173.622 17.56C174.129 16.8933 174.675 16.4667 175.262 16.28C175.395 16.2267 175.502 16.2 175.582 16.2C175.689 16.2 175.795 16.2 175.902 16.2C176.355 16.2 176.729 16.3333 177.022 16.6C177.315 16.8667 177.462 17.1733 177.462 17.52C177.462 18 177.209 18.4 176.702 18.72C176.302 18.6667 175.915 18.76 175.542 19C175.169 19.24 174.835 19.5333 174.542 19.88C174.275 20.2267 174.075 20.5333 173.942 20.8ZM167.062 40.24C166.715 40.24 166.382 40.16 166.062 40C165.742 39.8667 165.475 39.5867 165.262 39.16C164.969 38.52 164.822 37.76 164.822 36.88C164.822 35.92 164.969 34.8533 165.262 33.68C165.555 32.48 165.942 31.2533 166.422 30C166.609 29.5467 166.849 28.9867 167.142 28.32C167.435 27.6533 167.782 26.9867 168.182 26.32C168.582 25.6533 169.035 25.1067 169.542 24.68C170.075 24.2267 170.649 24 171.262 24C171.555 24 171.969 24.0133 172.502 24.04C173.035 24.0667 173.422 24.0667 173.662 24.04C173.502 24.1467 173.315 24.36 173.102 24.68C172.889 25 172.689 25.3333 172.502 25.68C172.315 26 172.169 26.2533 172.062 26.44C171.369 27.8267 170.715 29.2 170.102 30.56C169.489 31.92 169.022 33.2267 168.702 34.48C168.649 34.6933 168.609 34.9067 168.582 35.12C168.555 35.3333 168.542 35.5333 168.542 35.72C168.542 36.4933 168.795 36.88 169.302 36.88C169.515 36.88 169.742 36.8267 169.982 36.72C170.249 36.5867 170.555 36.3867 170.902 36.12C171.515 35.64 172.049 35.0933 172.502 34.48C173.035 33.7867 173.542 33.0533 174.022 32.28C174.502 31.48 174.915 30.7467 175.262 30.08C175.395 29.8667 175.489 29.76 175.542 29.76C175.702 29.76 175.782 29.9867 175.782 30.44C175.782 30.6533 175.742 30.9067 175.662 31.2C175.609 31.4667 175.515 31.72 175.382 31.96C175.009 32.6 174.569 33.3067 174.062 34.08C173.555 34.8533 173.035 35.6 172.502 36.32C172.129 36.8267 171.635 37.3867 171.022 38C170.409 38.6133 169.755 39.1467 169.062 39.6C168.369 40.0267 167.702 40.24 167.062 40.24ZM182.694 40.24C181.92 40.24 181.334 39.9333 180.934 39.32C180.747 39.0267 180.614 38.68 180.534 38.28C180.454 37.88 180.414 37.4667 180.414 37.04C180.414 36.6133 180.44 36.1867 180.494 35.76C180.547 35.3067 180.614 34.8667 180.694 34.44C180.827 33.7467 180.974 33.12 181.134 32.56C181.32 31.9733 181.507 31.4133 181.694 30.88V30.84C181.48 31.24 181.214 31.68 180.894 32.16C180.574 32.6133 180.347 32.9467 180.214 33.16C180.027 33.4533 179.88 33.6 179.774 33.6C179.667 33.6 179.614 33.48 179.614 33.24C179.614 32.7067 179.774 32.12 180.094 31.48C180.307 31.0533 180.6 30.5067 180.974 29.84C181.347 29.1467 181.734 28.4 182.134 27.6C182.534 26.8 182.88 26.0267 183.174 25.28H180.494C180.36 25.28 180.334 25.1733 180.414 24.96C180.494 24.7467 180.614 24.5467 180.774 24.36C180.934 24.1467 181.054 24.04 181.134 24.04H184.174C184.467 23.3467 184.8 22.6 185.174 21.8C185.574 21 186.014 20.2533 186.494 19.56C187 18.84 187.547 18.2533 188.134 17.8C188.72 17.3467 189.347 17.12 190.014 17.12C190.307 17.12 190.667 17.12 191.094 17.12C191.547 17.12 191.827 17.1067 191.934 17.08C191.374 17.4533 190.72 18.2 189.974 19.32C189.227 20.4133 188.414 21.9867 187.534 24.04H191.574C191.654 24.04 191.627 24.1467 191.494 24.36C191.36 24.5467 191.187 24.7467 190.974 24.96C190.787 25.1733 190.6 25.28 190.414 25.28H186.974C186.627 26.16 186.24 27.12 185.814 28.16C185.414 29.2 185.04 30.2267 184.694 31.24C184.374 32.2267 184.134 33.1333 183.974 33.96C183.867 34.4667 183.814 34.9333 183.814 35.36C183.814 36.3733 184.134 36.88 184.774 36.88C185.2 36.88 185.707 36.6667 186.294 36.24C186.88 35.8133 187.467 35.2267 188.054 34.48C188.587 33.7867 189.094 33.04 189.574 32.24C190.08 31.44 190.507 30.7067 190.854 30.04C190.96 29.8533 191.054 29.76 191.134 29.76C191.294 29.76 191.374 29.9733 191.374 30.4C191.374 30.6133 191.334 30.8667 191.254 31.16C191.2 31.4267 191.094 31.6933 190.934 31.96C190.56 32.6 190.12 33.3067 189.614 34.08C189.107 34.8267 188.587 35.5733 188.054 36.32C187.68 36.8 187.187 37.3467 186.574 37.96C185.987 38.5733 185.347 39.1067 184.654 39.56C183.987 40.0133 183.334 40.24 182.694 40.24Z" fill="white"/>
<ellipse cx="297" cy="30" rx="34" ry="30" fill="#FC6D6D"/>
<path d="M297.5 10L302.327 23.1287H317.948L305.31 31.2426L310.137 44.3713L297.5 36.2574L284.863 44.3713L289.69 31.2426L277.052 23.1287H292.673L297.5 10Z" fill="white"/>
</svg>
