<svg width="253" height="58" viewBox="0 0 253 58" fill="none" xmlns="http://www.w3.org/2000/svg">
<path d="M33.64 4.8C34.4667 4.96 35.08 5.24 35.48 5.64C35.9067 6.04 36.12 6.50667 36.12 7.04C36.12 7.92 35.8667 8.56 35.36 8.96C34.88 9.36 34.1067 9.52 33.04 9.44C30.64 9.25333 28.76 9.13333 27.4 9.08C26.0667 9 24.3067 8.94667 22.12 8.92C21.1333 13.8267 20.2267 18.76 19.4 23.72C19.1067 25.5333 18.8 27.64 18.48 30.04C18.16 32.4133 17.9467 34.3333 17.84 35.8C17.7867 36.5733 17.4667 37.1733 16.88 37.6C16.2933 38 15.5867 38.2 14.76 38.2C13.88 38.2 13.2 37.9867 12.72 37.56C12.24 37.1333 12 36.5733 12 35.88C12 35.24 12.0933 34.1867 12.28 32.72C12.4933 31.2267 12.7333 29.6667 13 28.04C13.2933 26.4133 13.52 25 13.68 23.8C13.9733 21.7733 14.3067 19.76 14.68 17.76C15.0533 15.76 15.4267 13.8667 15.8 12.08C15.88 11.68 15.9733 11.2267 16.08 10.72C16.1867 10.1867 16.3067 9.6 16.44 8.96C13.8267 9.04 11.7733 9.25333 10.28 9.6C8.78667 9.94667 7.72 10.44 7.08 11.08C6.46667 11.6933 6.16 12.4933 6.16 13.48C6.16 14.3867 6.42667 15.2533 6.96 16.08C7.06667 16.2667 7.12 16.4667 7.12 16.68C7.12 17.1867 6.81333 17.6667 6.2 18.12C5.61333 18.5467 5 18.76 4.36 18.76C3.90667 18.76 3.53333 18.6267 3.24 18.36C2.70667 17.9067 2.26667 17.2667 1.92 16.44C1.57333 15.5867 1.4 14.6267 1.4 13.56C1.4 11.2933 2.13333 9.48 3.6 8.12C5.09333 6.73333 7.34667 5.72 10.36 5.08C13.4 4.44 17.2933 4.12 22.04 4.12C24.9733 4.12 27.3067 4.17333 29.04 4.28C30.8 4.38666 32.3333 4.56 33.64 4.8ZM32.2397 38.2C31.2264 38.2 30.5064 37.6667 30.0797 36.6C29.6797 35.5333 29.4797 33.8267 29.4797 31.48C29.4797 28.0133 29.973 24.72 30.9597 21.6C31.1997 20.8267 31.5864 20.2667 32.1197 19.92C32.6797 19.5467 33.453 19.36 34.4397 19.36C34.973 19.36 35.3464 19.4267 35.5597 19.56C35.773 19.6933 35.8797 19.9467 35.8797 20.32C35.8797 20.7467 35.6797 21.7067 35.2797 23.2C35.013 24.2667 34.7997 25.2 34.6397 26C34.4797 26.8 34.3464 27.7867 34.2397 28.96C35.1197 26.6667 36.1064 24.8 37.1997 23.36C38.293 21.92 39.3597 20.8933 40.3997 20.28C41.4664 19.6667 42.4397 19.36 43.3197 19.36C45.053 19.36 45.9197 20.2267 45.9197 21.96C45.9197 22.3067 45.7997 23.1467 45.5597 24.48C45.3464 25.5467 45.2397 26.2133 45.2397 26.48C45.2397 27.4133 45.573 27.88 46.2397 27.88C46.9864 27.88 47.9464 27.2933 49.1197 26.12C49.4664 25.7733 49.8264 25.6 50.1997 25.6C50.5464 25.6 50.813 25.76 50.9997 26.08C51.213 26.3733 51.3197 26.7733 51.3197 27.28C51.3197 28.2667 51.053 29.04 50.5197 29.6C49.773 30.3733 48.893 31.04 47.8797 31.6C46.893 32.1333 45.8397 32.4 44.7197 32.4C43.3064 32.4 42.2264 32.04 41.4797 31.32C40.7597 30.6 40.3997 29.6267 40.3997 28.4C40.3997 28 40.4397 27.6 40.5197 27.2C40.573 26.6667 40.5997 26.3067 40.5997 26.12C40.5997 25.6933 40.453 25.48 40.1597 25.48C39.7597 25.48 39.2264 25.9333 38.5597 26.84C37.9197 27.72 37.2797 28.8933 36.6397 30.36C35.9997 31.8267 35.4797 33.3733 35.0797 35C34.7864 36.2533 34.4397 37.1067 34.0397 37.56C33.6664 37.9867 33.0664 38.2 32.2397 38.2ZM53.6428 16.72C52.5228 16.72 51.6828 16.4667 51.1228 15.96C50.5628 15.4267 50.2828 14.6933 50.2828 13.76C50.2828 12.8267 50.6428 12.0533 51.3628 11.44C52.1095 10.8 53.0295 10.48 54.1228 10.48C55.1095 10.48 55.9095 10.72 56.5228 11.2C57.1361 11.68 57.4428 12.36 57.4428 13.24C57.4428 14.3067 57.0961 15.16 56.4028 15.8C55.7095 16.4133 54.7895 16.72 53.6428 16.72ZM53.3228 38.2C51.5895 38.2 50.3228 37.5867 49.5228 36.36C48.7495 35.1333 48.3628 33.5067 48.3628 31.48C48.3628 30.28 48.5095 28.7467 48.8028 26.88C49.1228 24.9867 49.5228 23.2267 50.0028 21.6C50.2428 20.7467 50.5628 20.16 50.9628 19.84C51.3628 19.52 52.0028 19.36 52.8828 19.36C54.2428 19.36 54.9228 19.8133 54.9228 20.72C54.9228 21.3867 54.6695 22.9333 54.1628 25.36C53.5228 28.2933 53.2028 30.28 53.2028 31.32C53.2028 32.12 53.3095 32.7333 53.5228 33.16C53.7361 33.5867 54.0961 33.8 54.6028 33.8C55.0828 33.8 55.6828 33.4667 56.4028 32.8C57.1228 32.1333 58.0828 31.08 59.2828 29.64C59.6028 29.2667 59.9628 29.08 60.3628 29.08C60.7095 29.08 60.9761 29.24 61.1628 29.56C61.3761 29.88 61.4828 30.32 61.4828 30.88C61.4828 31.9467 61.2295 32.7733 60.7228 33.36C58.0828 36.5867 55.6161 38.2 53.3228 38.2ZM74.8866 25.8C74.8866 27.9067 74.3932 29.9067 73.4066 31.8C72.4466 33.6667 71.1532 35.1867 69.5266 36.36C67.9266 37.5333 66.2066 38.1467 64.3666 38.2C64.0199 43.3467 63.2332 47.64 62.0066 51.08C60.7799 54.5467 58.9799 56.28 56.6066 56.28C55.1666 56.28 54.0999 55.76 53.4066 54.72C52.7132 53.68 52.3666 52.24 52.3666 50.4C52.3666 47.7867 52.9666 44.7333 54.1666 41.24C55.3666 37.7733 57.2199 33.9467 59.7266 29.76C59.7266 25.8667 59.6999 23.16 59.6466 21.64C59.6199 20.8667 59.9266 20.2533 60.5666 19.8C61.2066 19.3467 62.0066 19.12 62.9666 19.12C63.5266 19.12 63.9266 19.24 64.1666 19.48C64.4332 19.6933 64.5799 20.1333 64.6066 20.8C64.6066 21.4667 64.6199 21.96 64.6466 22.28C65.4999 21.2133 66.3399 20.4533 67.1666 20C67.9932 19.52 68.8732 19.28 69.8066 19.28C71.2999 19.28 72.5132 19.88 73.4466 21.08C74.4066 22.28 74.8866 23.8533 74.8866 25.8ZM64.5666 34.36C65.5266 34.1467 66.4066 33.6267 67.2066 32.8C68.0332 31.9467 68.6866 30.9067 69.1666 29.68C69.6466 28.4267 69.8866 27.12 69.8866 25.76C69.8866 24.96 69.7266 24.36 69.4066 23.96C69.0866 23.5333 68.6599 23.32 68.1266 23.32C67.1666 23.32 66.0066 24.3333 64.6466 26.36C64.6199 27.5333 64.6066 29.2533 64.6066 31.52C64.6066 32.7467 64.5932 33.6933 64.5666 34.36ZM56.9266 52.36C57.6466 52.36 58.2466 50.7867 58.7266 47.64C59.2066 44.52 59.5132 40.6267 59.6466 35.96C58.4999 38.6267 57.5932 41.1733 56.9266 43.6C56.2599 46.0267 55.9266 48.0667 55.9266 49.72C55.9266 50.5733 56.0332 51.2267 56.2466 51.68C56.4332 52.1333 56.6599 52.36 56.9266 52.36ZM108.528 25.84C106.821 28.4533 104.754 30.76 102.328 32.76L105.808 36.6C106.421 37.24 106.728 37.9067 106.728 38.6C106.728 39.2667 106.461 39.8133 105.928 40.24C105.394 40.6933 104.688 40.92 103.808 40.92C102.581 40.92 101.648 40.5467 101.008 39.8L97.6478 35.84C94.5011 37.4133 91.4878 38.2 88.6078 38.2C86.4745 38.2 84.6078 37.8667 83.0078 37.2C81.4078 36.5333 80.1678 35.6133 79.2878 34.44C78.4345 33.2667 78.0078 31.96 78.0078 30.52C78.0078 28.5733 78.6078 26.76 79.8078 25.08C81.0345 23.3733 83.0211 21.6933 85.7678 20.04C84.2211 17.2133 83.4478 14.72 83.4478 12.56C83.4478 10.64 83.8478 8.94667 84.6478 7.48C85.4478 6.01333 86.5545 4.88 87.9678 4.08C89.4078 3.28 91.0478 2.88 92.8878 2.88C95.2345 2.88 97.0478 3.56 98.3278 4.92C99.6345 6.25333 100.288 8.09333 100.288 10.44C100.288 12.3867 99.7145 14.2267 98.5678 15.96C97.4478 17.6667 95.4478 19.4133 92.5678 21.2C94.2745 23.52 96.5278 26.2533 99.3278 29.4C101.088 27.8267 102.834 25.84 104.568 23.44C104.861 23.0133 105.208 22.72 105.608 22.56C106.008 22.3733 106.501 22.28 107.088 22.28C108.634 22.28 109.408 22.72 109.408 23.6C109.408 24.16 109.114 24.9067 108.528 25.84ZM92.6078 7.08C91.3545 7.08 90.3678 7.56 89.6478 8.52C88.9278 9.45333 88.5678 10.6267 88.5678 12.04C88.5678 13.72 89.1278 15.56 90.2478 17.56C92.3278 16.3333 93.7411 15.1467 94.4878 14C95.2345 12.8533 95.6078 11.6 95.6078 10.24C95.6078 9.25333 95.3545 8.48 94.8478 7.92C94.3411 7.36 93.5945 7.08 92.6078 7.08ZM88.8478 33.8C90.9278 33.8 92.9145 33.3467 94.8078 32.44C91.9811 29.0533 89.7545 26.16 88.1278 23.76C85.1145 25.7333 83.6078 27.7867 83.6078 29.92C83.6078 31.1467 84.0745 32.1067 85.0078 32.8C85.9411 33.4667 87.2211 33.8 88.8478 33.8ZM120.311 38.2C119.325 38.2 118.618 37.9867 118.191 37.56C117.765 37.1067 117.551 36.2667 117.551 35.04C117.551 34.2133 117.631 33.16 117.791 31.88C117.978 30.5733 118.271 28.7867 118.671 26.52C119.365 22.3333 119.911 18.7067 120.311 15.64C120.551 13.72 120.671 12.12 120.671 10.84C120.671 9.64 120.231 9.04 119.351 9.04C118.658 9.04 117.818 9.4 116.831 10.12C115.871 10.8133 114.805 11.9333 113.631 13.48C113.258 13.9867 112.845 14.24 112.391 14.24C112.018 14.24 111.685 14.0667 111.391 13.72C111.125 13.3467 110.991 12.9333 110.991 12.48C110.991 12.0533 111.071 11.6267 111.231 11.2C111.418 10.7467 111.711 10.24 112.111 9.68C113.391 7.89333 114.818 6.52 116.391 5.56C117.965 4.57333 119.538 4.08 121.111 4.08C122.578 4.08 123.698 4.54667 124.471 5.48C125.271 6.41333 125.671 7.77333 125.671 9.56C125.671 10.28 125.605 11.1333 125.471 12.12C125.338 13.08 125.218 13.8667 125.111 14.48C125.005 15.0933 124.925 15.52 124.871 15.76C126.391 11.4133 128.098 8.38666 129.991 6.68C131.885 4.94666 133.965 4.08 136.231 4.08C137.965 4.08 139.325 4.69333 140.311 5.92C141.325 7.14666 141.831 8.88 141.831 11.12C141.831 12 141.711 13.0933 141.471 14.4C142.805 10.72 144.365 8.08 146.151 6.48C147.938 4.88 149.991 4.08 152.311 4.08C154.178 4.08 155.605 4.68 156.591 5.88C157.605 7.08 158.111 8.76 158.111 10.92C158.111 12.0933 157.938 13.52 157.591 15.2L155.151 26.64C154.885 27.9733 154.751 29.12 154.751 30.08C154.751 31.2 155.005 32.04 155.511 32.6C156.045 33.16 156.778 33.44 157.711 33.44C158.591 33.44 159.445 33.1467 160.271 32.56C161.125 31.9733 162.125 31 163.271 29.64C163.591 29.2667 163.951 29.08 164.351 29.08C164.698 29.08 164.965 29.24 165.151 29.56C165.365 29.88 165.471 30.32 165.471 30.88C165.471 31.92 165.218 32.7467 164.711 33.36C163.325 35.04 161.951 36.2667 160.591 37.04C159.231 37.8133 157.805 38.2 156.311 38.2C154.045 38.2 152.271 37.5333 150.991 36.2C149.711 34.84 149.071 33.0267 149.071 30.76C149.071 29.1867 149.391 26.9067 150.031 23.92L151.631 16.6C151.685 16.36 151.778 15.9333 151.911 15.32C152.045 14.7067 152.151 14.1333 152.231 13.6C152.311 13.04 152.351 12.4933 152.351 11.96C152.351 11.0267 152.165 10.3333 151.791 9.88C151.445 9.4 150.938 9.16 150.271 9.16C149.018 9.16 147.698 9.97333 146.311 11.6C144.951 13.2 143.645 15.8667 142.391 19.6C141.165 23.3333 140.165 28.1867 139.391 34.16C139.205 35.76 138.871 36.84 138.391 37.4C137.938 37.9333 137.191 38.2 136.151 38.2C135.245 38.2 134.578 37.9867 134.151 37.56C133.751 37.1333 133.551 36.3333 133.551 35.16C133.551 34.0667 133.698 32.64 133.991 30.88C134.285 29.0933 134.658 27 135.111 24.6C136.338 18.1467 136.951 13.9867 136.951 12.12C136.951 11.1067 136.751 10.36 136.351 9.88C135.978 9.4 135.405 9.16 134.631 9.16C133.325 9.16 131.978 9.90667 130.591 11.4C129.205 12.8667 127.845 15.4933 126.511 19.28C125.205 23.04 124.111 28.1333 123.231 34.56C123.045 35.92 122.765 36.8667 122.391 37.4C122.045 37.9333 121.351 38.2 120.311 38.2ZM168.288 16.72C167.168 16.72 166.328 16.4667 165.768 15.96C165.208 15.4267 164.928 14.6933 164.928 13.76C164.928 12.8267 165.288 12.0533 166.008 11.44C166.755 10.8 167.675 10.48 168.768 10.48C169.755 10.48 170.555 10.72 171.168 11.2C171.781 11.68 172.088 12.36 172.088 13.24C172.088 14.3067 171.741 15.16 171.048 15.8C170.355 16.4133 169.435 16.72 168.288 16.72ZM167.968 38.2C166.235 38.2 164.968 37.5867 164.168 36.36C163.395 35.1333 163.008 33.5067 163.008 31.48C163.008 30.28 163.155 28.7467 163.448 26.88C163.768 24.9867 164.168 23.2267 164.648 21.6C164.888 20.7467 165.208 20.16 165.608 19.84C166.008 19.52 166.648 19.36 167.528 19.36C168.888 19.36 169.568 19.8133 169.568 20.72C169.568 21.3867 169.315 22.9333 168.808 25.36C168.168 28.2933 167.848 30.28 167.848 31.32C167.848 32.12 167.955 32.7333 168.168 33.16C168.381 33.5867 168.741 33.8 169.248 33.8C169.728 33.8 170.328 33.4667 171.048 32.8C171.768 32.1333 172.728 31.08 173.928 29.64C174.248 29.2667 174.608 29.08 175.008 29.08C175.355 29.08 175.621 29.24 175.808 29.56C176.021 29.88 176.128 30.32 176.128 30.88C176.128 31.9467 175.875 32.7733 175.368 33.36C172.728 36.5867 170.261 38.2 167.968 38.2ZM176.532 38.2C175.519 38.2 174.799 37.6667 174.372 36.6C173.972 35.5333 173.772 33.8267 173.772 31.48C173.772 28.0133 174.265 24.72 175.252 21.6C175.492 20.8267 175.879 20.2667 176.412 19.92C176.972 19.5467 177.745 19.36 178.732 19.36C179.265 19.36 179.639 19.4267 179.852 19.56C180.065 19.6933 180.172 19.9467 180.172 20.32C180.172 20.7467 179.972 21.7067 179.572 23.2C179.305 24.2667 179.092 25.2 178.932 26C178.772 26.8 178.639 27.7867 178.532 28.96C179.412 26.6667 180.399 24.8 181.492 23.36C182.585 21.92 183.652 20.8933 184.692 20.28C185.759 19.6667 186.732 19.36 187.612 19.36C189.345 19.36 190.212 20.2267 190.212 21.96C190.212 23 189.919 24.88 189.332 27.6C188.825 29.92 188.572 31.4533 188.572 32.2C188.572 33.2667 188.959 33.8 189.732 33.8C190.265 33.8 190.892 33.48 191.612 32.84C192.359 32.1733 193.345 31.1067 194.572 29.64C194.892 29.2667 195.252 29.08 195.652 29.08C195.999 29.08 196.265 29.24 196.452 29.56C196.665 29.88 196.772 30.32 196.772 30.88C196.772 31.9467 196.519 32.7733 196.012 33.36C194.865 34.7733 193.625 35.9333 192.292 36.84C190.985 37.7467 189.492 38.2 187.812 38.2C186.452 38.2 185.425 37.8133 184.732 37.04C184.039 36.24 183.692 35.0933 183.692 33.6C183.692 32.8533 183.879 31.52 184.252 29.6C184.599 27.92 184.772 26.76 184.772 26.12C184.772 25.6933 184.625 25.48 184.332 25.48C183.985 25.48 183.492 25.9333 182.852 26.84C182.239 27.72 181.599 28.8933 180.932 30.36C180.292 31.8267 179.772 33.3733 179.372 35C179.079 36.2533 178.732 37.1067 178.332 37.56C177.959 37.9867 177.359 38.2 176.532 38.2ZM208.896 29.08C209.189 31.2667 209.616 33.4267 210.176 35.56C210.282 35.9067 210.336 36.2667 210.336 36.64C210.336 37.84 209.602 38.44 208.136 38.44C207.309 38.44 206.669 38.2133 206.216 37.76C205.789 37.3067 205.389 36.4533 205.016 35.2L204.976 35.04C203.962 36.2933 203.042 37.1333 202.216 37.56C201.416 37.9867 200.482 38.2 199.416 38.2C197.789 38.2 196.442 37.6 195.376 36.4C194.336 35.1733 193.816 33.5867 193.816 31.64C193.816 29.5067 194.269 27.5333 195.176 25.72C196.082 23.9067 197.322 22.4267 198.896 21.28C200.469 20.1067 202.229 19.4 204.176 19.16C204.682 14.12 205.642 9.73333 207.056 6C208.496 2.26666 210.402 0.399998 212.776 0.399998C213.922 0.399998 214.869 0.919998 215.616 1.96C216.389 3 216.776 4.57333 216.776 6.68C216.776 9.61333 216.056 13.04 214.616 16.96C213.176 20.88 211.269 24.92 208.896 29.08ZM212.336 4.32C211.562 4.32 210.829 6.29333 210.136 10.24C209.469 14.1867 209.016 18.48 208.776 23.12C211.736 16.72 213.216 11.52 213.216 7.52C213.216 6.50667 213.122 5.72 212.936 5.16C212.776 4.6 212.576 4.32 212.336 4.32ZM200.816 34.16C201.349 34.16 201.856 33.96 202.336 33.56C202.842 33.16 203.482 32.3867 204.256 31.24C203.989 29.2933 203.856 27.28 203.856 25.2C203.856 24.3733 203.869 23.7333 203.896 23.28C202.429 23.7067 201.216 24.68 200.256 26.2C199.296 27.72 198.816 29.4 198.816 31.24C198.816 33.1867 199.482 34.16 200.816 34.16Z" fill="white"/>
<path d="M209 29.541C264.504 29.541 254.645 11.1803 242.777 2V58" stroke="#F88181"/>
</svg>
